<?xml version="1.0" standalone="no"?>
<!DOCTYPE svg PUBLIC "-//W3C//DTD SVG 20010904//EN"
 "http://www.w3.org/TR/2001/REC-SVG-20010904/DTD/svg10.dtd">
<svg version="1.0" xmlns="http://www.w3.org/2000/svg"
 width="500.000000pt" height="500.000000pt" viewBox="0 0 500.000000 500.000000"
 preserveAspectRatio="xMidYMid meet">

<g transform="translate(0.000000,500.000000) scale(0.100000,-0.100000)"
fill="#000000" stroke="none">
<path d="M2520 4628 c0 -105 2 -189 4 -187 2 2 7 88 11 192 5 133 4 187 -4
187 -8 0 -11 -60 -11 -192z"/>
<path d="M4610 3320 c-100 -42 -279 -110 -289 -110 -6 0 -11 -7 -11 -15 0 -13
4 -13 33 0 17 8 86 35 152 60 163 62 165 63 165 75 0 12 4 13 -50 -10z"/>
<path d="M505 1999 c-55 -16 -108 -33 -117 -39 -10 -5 -25 -7 -35 -3 -13 4
-15 3 -7 -6 7 -8 41 -3 135 20 68 17 126 36 127 40 2 5 9 6 14 3 7 -4 8 -2 4
4 -9 14 1 16 -121 -19z"/>
<path d="M315 1940 c3 -5 11 -10 16 -10 6 0 7 5 4 10 -3 6 -11 10 -16 10 -6 0
-7 -4 -4 -10z"/>
<path d="M261 1924 c0 -11 3 -14 6 -6 3 7 2 16 -1 19 -3 4 -6 -2 -5 -13z"/>
<path d="M285 1930 c-3 -5 -1 -10 4 -10 6 0 11 5 11 10 0 6 -2 10 -4 10 -3 0
-8 -4 -11 -10z"/>
<path d="M2650 509 c0 -24 4 -38 10 -34 6 3 10 22 10 41 0 19 -4 34 -10 34 -5
0 -10 -18 -10 -41z"/>
<path d="M2666 367 c1 -45 2 -103 2 -129 1 -36 5 -48 17 -48 8 0 15 5 15 11 0
5 -4 7 -10 4 -6 -4 -8 15 -4 53 4 37 3 62 -4 66 -6 4 -8 27 -5 60 3 29 1 56
-4 59 -5 3 -8 -27 -7 -76z"/>
</g>
</svg>
