<?xml version="1.0" standalone="no"?>
<!DOCTYPE svg PUBLIC "-//W3C//DTD SVG 20010904//EN"
 "http://www.w3.org/TR/2001/REC-SVG-20010904/DTD/svg10.dtd">
<svg version="1.0" xmlns="http://www.w3.org/2000/svg"
 width="500.000000pt" height="500.000000pt" viewBox="0 0 500.000000 500.000000"
 preserveAspectRatio="xMidYMid meet">

<g transform="translate(0.000000,500.000000) scale(0.100000,-0.100000)"
fill="#000000" stroke="none">
<path d="M2517 4708 c-11 -183 -9 -270 6 -266 14 5 23 378 9 378 -5 0 -12 -51
-15 -112z"/>
<path d="M2128 4758 c-27 -9 -28 -13 -28 -72 0 -35 3 -91 6 -125 7 -60 8 -62
33 -59 24 3 26 6 23 46 -3 53 15 56 52 7 30 -39 33 -40 60 -20 19 14 19 16 -7
52 -24 33 -25 39 -12 53 20 22 19 94 -1 114 -17 18 -83 20 -126 4z m82 -61 c0
-44 -43 -64 -56 -25 -4 15 -1 25 12 35 27 20 44 16 44 -10z"/>
<path d="M2752 4658 c-12 -55 -20 -103 -17 -106 3 -3 5 2 5 11 0 9 4 18 9 21
5 4 6 -9 1 -28 -6 -27 -4 -36 8 -41 19 -7 23 -3 31 37 6 30 10 33 51 38 25 3
51 9 59 14 20 13 43 75 35 99 -14 45 -34 57 -99 57 l-62 0 -21 -102z m119 36
c11 -14 10 -19 -10 -35 -33 -27 -55 -25 -47 4 3 12 6 28 6 35 0 17 35 15 51
-4z"/>
<path d="M1963 4727 c-54 -15 -73 -24 -73 -37 0 -20 38 -231 42 -235 3 -3 52
9 133 33 17 5 30 14 29 20 -1 7 -2 21 -2 31 -2 18 -5 18 -54 5 -56 -14 -62
-12 -73 26 -4 18 -3 21 3 11 9 -12 15 -12 44 -1 46 18 50 23 34 45 -12 17 -18
18 -50 8 -32 -10 -36 -9 -36 7 0 13 15 23 50 36 28 10 50 23 50 30 0 18 -11
44 -19 43 -3 -1 -39 -11 -78 -22z"/>
<path d="M2990 4728 c0 -2 -18 -55 -39 -118 -40 -117 -40 -129 1 -130 11 0 20
12 26 32 11 43 39 49 48 11 14 -64 14 -65 42 -58 34 8 32 4 22 50 -8 36 -7 42
15 58 13 10 29 33 35 53 16 48 -5 81 -57 89 -21 4 -50 9 -65 11 -16 3 -28 4
-28 2z m94 -77 c9 -13 -30 -43 -52 -39 -30 5 -11 48 22 48 14 0 27 -4 30 -9z"/>
<path d="M1734 4654 l-51 -25 19 -72 c28 -101 50 -161 43 -122 l-4 30 13 -30
c11 -22 11 -32 3 -38 -8 -6 -5 -7 6 -3 10 3 23 6 28 6 6 0 8 18 3 45 -4 29 -3
45 4 45 6 0 24 12 41 26 26 22 31 33 31 70 0 34 -6 51 -25 69 -30 31 -46 30
-111 -1z m75 -52 c7 -14 6 -25 -5 -40 -20 -29 -30 -28 -42 8 -9 24 -8 31 6 40
24 14 30 12 41 -8z"/>
<path d="M3206 4639 c-37 -29 -78 -122 -72 -161 7 -45 33 -68 78 -68 30 0 45
7 65 28 54 57 80 156 50 196 -7 9 -31 20 -52 23 -32 4 -46 0 -69 -18z m70 -74
c-7 -55 -57 -118 -77 -98 -23 23 38 143 72 143 8 0 10 -15 5 -45z m34 -59 c0
-3 -4 -8 -10 -11 -5 -3 -10 -1 -10 4 0 6 5 11 10 11 6 0 10 -2 10 -4z"/>
<path d="M1541 4586 c-59 -71 2 -246 85 -246 36 0 84 50 84 89 0 17 -4 31 -10
31 -5 0 -7 7 -4 15 7 17 -30 94 -54 113 -21 16 -87 15 -101 -2z m76 -63 c10
-16 22 -31 27 -34 5 -4 5 -12 2 -18 -4 -6 -3 -11 3 -11 5 0 6 -11 2 -27 -5
-18 -14 -28 -26 -28 -15 0 -24 14 -37 60 -18 59 -18 85 1 85 6 0 18 -12 28
-27z m68 -33 c3 -5 1 -10 -4 -10 -6 0 -11 5 -11 10 0 6 2 10 4 10 3 0 8 -4 11
-10z"/>
<path d="M3393 4554 c-31 -21 -49 -43 -69 -88 -24 -54 -26 -62 -13 -85 8 -14
31 -32 51 -39 45 -17 83 -2 110 44 21 36 10 59 -34 69 -21 6 -28 3 -34 -17 -4
-12 -7 -29 -5 -36 3 -16 -31 -12 -36 4 -7 20 61 109 85 112 24 4 27 -1 12 -27
-7 -15 -4 -21 18 -30 22 -11 28 -10 39 5 19 25 16 68 -5 87 -34 31 -73 31
-119 1z"/>
<path d="M3530 4430 c-86 -125 -88 -129 -70 -140 25 -16 40 -11 58 20 24 41
36 32 40 -28 3 -50 4 -52 33 -52 28 0 29 2 29 44 0 35 4 46 19 51 45 14 71 45
71 86 0 37 -2 40 -60 69 -33 16 -61 30 -62 30 -2 0 -28 -36 -58 -80z m116 -12
c12 -18 -23 -41 -50 -34 -26 6 -26 7 -9 30 17 23 46 25 59 4z"/>
<path d="M1353 4487 c-13 -5 -23 -15 -23 -22 0 -6 25 -62 56 -124 50 -103 57
-112 72 -99 9 8 38 27 65 42 50 28 55 40 33 69 -14 18 -16 18 -55 -2 l-41 -21
-42 84 c-40 78 -44 83 -65 73z"/>
<path d="M1223 4404 c-35 -25 -63 -52 -63 -60 0 -15 77 -148 110 -192 l18 -22
63 47 c35 26 65 48 67 49 5 3 -21 54 -28 54 -4 0 -24 -13 -45 -30 -43 -34 -51
-36 -58 -15 -4 9 7 25 29 43 23 19 33 34 29 45 -11 26 -33 27 -63 2 -22 -18
-32 -21 -40 -13 -9 9 -1 22 34 53 46 40 46 40 28 62 l-19 22 -62 -45z"/>
<path d="M3758 4309 c-37 -22 -84 -56 -105 -74 l-38 -33 25 -20 c21 -17 27
-18 43 -7 15 10 25 11 44 2 13 -6 22 -15 19 -21 -2 -6 -7 -18 -11 -27 -4 -11
3 -22 22 -34 15 -10 39 -29 53 -42 l24 -23 34 33 33 32 -10 -28 c-22 -58 -11
-67 54 -42 16 6 14 1 -9 -24 l-30 -31 44 -45 c24 -25 49 -45 54 -45 5 0 20 10
33 22 13 12 23 16 23 10 0 -6 -4 -14 -10 -17 -5 -3 -10 -15 -10 -27 0 -18 5
-20 41 -16 l42 4 -33 -27 -32 -27 46 -59 c116 -146 104 -135 130 -116 l24 18
-31 43 c-24 32 -28 45 -19 54 9 9 20 4 47 -22 32 -31 36 -33 51 -18 15 15 15
19 -6 48 -17 25 -20 34 -10 43 9 9 20 2 50 -32 33 -38 40 -42 59 -32 11 7 21
16 21 20 0 11 -88 125 -100 129 -8 3 -86 -42 -162 -92 -48 -32 -30 -10 45 55
54 46 72 69 73 89 1 21 -4 26 -23 28 -14 1 -32 -2 -41 -7 -9 -4 -30 -11 -45
-15 l-29 -7 28 49 c27 49 27 49 8 74 l-19 26 -40 -31 c-22 -17 -57 -46 -77
-66 -52 -48 -81 -51 -35 -3 100 104 107 114 104 140 -5 33 -18 34 -82 5 -27
-12 -51 -21 -53 -19 -2 2 6 22 17 45 21 41 28 87 12 77 -5 -3 -14 1 -22 10
-11 13 -20 7 -75 -47 -35 -34 -61 -66 -58 -71 4 -6 -35 -28 -50 -28 -1 0 20
45 46 100 53 111 57 134 29 150 -30 16 -41 13 -113 -31z m41 -63 c-12 -25 -39
-36 -39 -15 0 5 -5 7 -12 3 -7 -4 -8 -3 -4 4 4 6 13 9 22 5 9 -3 14 0 12 8 -2
8 3 13 10 12 6 -2 12 2 12 9 0 6 2 9 5 6 3 -3 0 -17 -6 -32z m-18 -133 c-10
-17 -10 -16 -11 3 0 23 13 41 18 25 2 -6 -1 -18 -7 -28z m459 -343 c0 -5 -5
-10 -11 -10 -5 0 -7 5 -4 10 3 6 8 10 11 10 2 0 4 -4 4 -10z"/>
<path d="M1103 4313 c-7 -3 -13 -12 -13 -21 0 -15 -2 -15 -10 -2 -16 24 -12 8
15 -60 14 -35 23 -65 21 -68 -3 -2 -27 15 -54 38 -45 37 -52 40 -71 28 -30
-18 -26 -32 17 -62 20 -14 64 -48 97 -76 33 -27 65 -49 71 -50 6 0 18 8 28 18
18 21 17 25 -44 172 -34 83 -39 90 -57 83z"/>
<path d="M881 4120 l-53 -61 46 -52 c25 -29 63 -72 85 -96 l39 -45 54 58 c29
32 55 63 57 68 1 5 -5 18 -15 29 -17 19 -18 19 -60 -22 -36 -35 -44 -40 -50
-26 -4 11 4 30 20 51 31 42 31 42 5 57 -18 9 -25 6 -48 -21 -23 -28 -28 -30
-39 -17 -10 12 -6 22 22 56 31 36 34 45 23 62 -6 10 -17 19 -23 19 -6 0 -35
-27 -63 -60z"/>
<path d="M752 3984 c-12 -8 -29 -32 -38 -52 l-15 -37 88 -82 c48 -46 91 -83
94 -83 16 0 59 79 59 109 0 105 -117 195 -188 145z m80 -56 c38 -31 66 -108
39 -108 -17 0 -91 73 -91 90 0 31 24 40 52 18z"/>
<path d="M571 3724 c-23 -16 -51 -70 -51 -98 0 -8 15 -23 33 -34 17 -12 61
-41 96 -66 36 -25 68 -43 73 -40 5 3 18 24 29 46 18 36 20 47 10 78 -15 50
-45 87 -92 110 -47 24 -67 25 -98 4z m105 -82 c24 -27 32 -72 14 -72 -20 0
-99 65 -100 81 -1 39 48 34 86 -9z"/>
<path d="M4328 3654 c-107 -53 -122 -70 -93 -94 12 -10 20 -9 41 5 14 9 32 14
41 11 13 -6 13 -9 1 -29 -43 -66 -44 -67 -28 -77 26 -17 45 -11 63 20 16 26
24 30 61 30 51 0 96 30 96 63 0 18 -64 129 -73 126 -1 0 -50 -25 -109 -55z
m112 -39 c24 -29 -11 -46 -52 -24 -21 11 -21 12 -3 25 24 18 40 18 55 -1z"/>
<path d="M471 3568 c-10 -27 -1 -42 39 -58 44 -18 36 -28 -18 -22 -37 3 -53 0
-65 -13 -26 -25 -20 -50 16 -68 48 -25 139 -76 164 -93 29 -19 29 -19 42 16
10 30 9 31 -49 60 -33 17 -60 32 -60 35 0 2 12 3 28 0 106 -16 119 -15 131 11
6 14 11 27 11 29 0 3 -37 23 -82 46 -46 23 -95 50 -110 60 -33 24 -37 24 -47
-3z"/>
<path d="M361 3325 c-29 -90 -28 -99 17 -118 20 -8 70 -29 111 -46 41 -17 76
-29 79 -27 2 3 15 38 28 78 23 68 23 74 7 86 -29 21 -42 14 -54 -30 -15 -53
-25 -66 -40 -51 -9 9 -9 23 -1 53 8 34 8 42 -7 49 -23 13 -37 2 -46 -36 -6
-32 -27 -44 -40 -23 -3 5 1 32 9 60 14 47 14 50 -4 60 -32 17 -36 12 -59 -55z"/>
<path d="M4575 3310 c-138 -56 -253 -100 -264 -100 -6 0 -8 -6 -5 -13 4 -11
21 -8 82 14 179 65 274 105 274 114 -1 17 -16 15 -87 -15z"/>
<path d="M310 3187 c0 -2 -9 -41 -21 -87 -11 -45 -18 -84 -16 -86 2 -2 18 -7
35 -10 29 -6 32 -4 32 20 0 29 8 31 65 14 22 -6 50 -10 63 -10 13 1 20 -2 17
-8 -3 -6 1 -7 9 -4 9 4 16 1 16 -6 0 -21 24 -4 31 22 7 26 5 27 -90 57 -96 30
-96 31 -96 63 0 27 -4 34 -22 36 -13 2 -23 1 -23 -1z"/>
<path d="M4622 3060 c-13 -6 -31 -29 -42 -56 -15 -33 -25 -45 -37 -42 -14 3
-17 12 -15 41 3 33 0 37 -21 37 -59 0 -47 -115 14 -140 47 -20 76 -6 104 50
24 47 46 62 60 40 3 -6 -1 -13 -9 -16 -10 -4 -16 -18 -16 -36 0 -28 2 -30 28
-24 31 8 52 31 52 58 0 35 -29 76 -61 87 -18 6 -32 11 -33 10 -1 0 -11 -4 -24
-9z"/>
<path d="M256 2964 c-11 -28 -7 -33 42 -48 47 -14 47 -14 17 -21 -55 -12 -74
-24 -81 -50 -3 -14 -4 -28 -2 -30 12 -12 244 -63 251 -56 5 5 7 19 5 32 -2 20
-12 26 -56 35 -30 7 -55 14 -58 16 -2 3 28 10 67 17 l70 13 -3 31 -3 31 -110
22 c-135 28 -132 27 -139 8z"/>
<path d="M4605 2883 c-11 -2 -30 -6 -43 -9 -13 -2 -20 -9 -17 -14 3 -6 0 -10
-8 -10 -34 0 -36 -68 -4 -106 41 -47 176 -46 223 1 72 72 -29 164 -151 138z
m115 -78 c10 -12 7 -17 -16 -26 -53 -20 -134 -11 -134 16 0 18 16 23 81 24 39
1 60 -4 69 -14z"/>
<path d="M247 2744 c-18 -10 -27 -21 -23 -30 3 -9 1 -12 -4 -9 -16 10 -11 -49
6 -73 30 -43 143 -70 198 -47 42 18 48 26 48 73 0 27 -7 42 -27 60 -15 13 -34
21 -42 18 -8 -3 -12 -2 -9 3 14 23 -107 27 -147 5z m118 -4 c3 -5 1 -10 -4
-10 -6 0 -11 5 -11 10 0 6 2 10 4 10 3 0 8 -4 11 -10z m18 -52 c-2 -5 2 -8 10
-8 16 0 30 -24 20 -34 -16 -16 -135 4 -148 24 -13 21 9 31 65 28 32 -2 56 -6
53 -10z"/>
<path d="M4527 2684 c-3 -5 -3 -22 0 -37 5 -26 9 -28 42 -25 35 3 36 2 45 -39
9 -38 13 -43 39 -43 28 0 28 1 21 45 -6 43 -5 45 18 45 22 0 26 -6 34 -52 8
-49 11 -53 38 -56 l29 -4 -7 78 c-4 43 -8 80 -10 81 -7 8 -244 14 -249 7z"/>
<path d="M231 2534 c-22 -16 -23 -22 -18 -81 2 -35 7 -67 10 -69 3 -3 60 -8
126 -11 l121 -6 0 26 c0 23 -5 26 -37 29 -53 4 -55 30 -3 53 45 20 46 22 24
53 l-15 22 -38 -19 c-32 -17 -40 -18 -52 -6 -24 24 -90 29 -118 9z m77 -60
c32 -22 28 -44 -7 -44 -23 0 -30 5 -33 25 -8 38 4 44 40 19z"/>
<path d="M4722 2470 c5 -30 4 -30 -46 -30 -28 0 -62 -3 -76 -5 -22 -5 -22 -4
-5 4 16 7 11 9 -22 8 -39 -1 -43 -3 -43 -28 0 -25 2 -26 100 -39 l100 -12 0
-29 c0 -26 4 -29 30 -29 l30 0 0 89 c0 84 -1 89 -22 95 -44 11 -51 8 -46 -24z"/>
<path d="M214 2323 c2 -10 8 -46 11 -80 l7 -63 76 0 c43 0 101 3 130 6 49 6
52 8 52 35 0 28 -2 29 -44 29 -43 0 -44 1 -53 38 -7 31 -13 38 -37 40 -28 4
-29 4 -22 -42 7 -44 6 -46 -18 -46 -20 0 -26 6 -31 33 -13 63 -15 67 -46 67
-24 0 -29 -4 -25 -17z"/>
<path d="M4518 2270 c-4 -30 -1 -34 36 -51 l41 -19 -41 5 c-32 4 -43 1 -48
-11 -15 -38 -6 -49 57 -73 34 -14 87 -35 117 -47 l55 -22 13 25 c8 13 12 26
10 27 -2 1 -19 9 -38 18 l-35 17 36 0 c35 1 49 13 49 42 0 6 -19 19 -42 30
l-43 19 41 -5 c32 -4 43 -1 48 11 17 44 11 46 -170 60 l-81 6 -5 -32z m9 -105
c0 -8 -4 -12 -9 -9 -5 3 -6 10 -3 15 9 13 12 11 12 -6z m48 -15 c-3 -5 -12
-10 -18 -10 -7 0 -6 4 3 10 19 12 23 12 15 0z"/>
<path d="M4481 2058 c-11 -29 -10 -35 9 -47 13 -8 20 -24 20 -43 0 -28 -2 -30
-28 -25 -26 5 -30 2 -39 -28 l-11 -33 42 -6 c117 -16 206 -18 221 -6 32 27 18
64 -42 112 -32 25 -71 53 -88 62 -16 9 -40 23 -51 32 -21 14 -22 13 -33 -18z
m121 -103 c2 3 5 -2 5 -10 0 -9 -10 -15 -24 -15 -14 0 -23 6 -23 15 0 8 5 15
11 15 5 0 7 6 4 13 -4 6 0 4 8 -5 8 -10 16 -16 19 -13z m-99 -52 c-7 -2 -21
-2 -30 0 -10 3 -4 5 12 5 17 0 24 -2 18 -5z"/>
<path d="M515 2005 c-44 -13 -121 -34 -172 -46 -68 -16 -90 -25 -86 -36 4 -9
12 -11 27 -6 11 3 93 25 180 48 88 23 161 46 164 53 5 17 -22 14 -113 -13z"/>
<path d="M4422 1845 c-11 -23 -9 -26 24 -40 40 -16 41 -38 3 -43 -63 -7 -68
-10 -60 -39 7 -25 11 -27 44 -25 30 3 42 -2 72 -33 31 -30 43 -36 73 -33 42 3
66 37 76 103 l6 40 -77 34 c-43 19 -91 40 -107 48 -39 17 -41 17 -54 -12z
m149 -95 c21 -12 26 -60 6 -60 -20 0 -37 22 -37 47 0 26 3 27 31 13z"/>
<path d="M546 1732 c-17 -27 -23 -28 -68 -24 -41 4 -53 1 -73 -18 -31 -30 -31
-48 1 -111 24 -48 26 -50 57 -44 18 4 58 18 89 30 31 13 71 26 87 30 35 8 34
6 21 39 -8 23 -12 24 -42 15 -18 -5 -36 -9 -40 -9 -15 0 -8 24 18 57 25 33 25
35 8 48 -27 21 -37 18 -58 -13z m-41 -102 c17 -18 16 -19 -9 -26 -28 -7 -56 9
-56 32 0 21 44 17 65 -6z"/>
<path d="M4353 1673 c-3 -10 -18 -46 -33 -79 l-28 -62 25 -11 c13 -6 25 -11
27 -11 2 0 13 21 25 46 24 50 48 55 42 8 -8 -61 -6 -69 15 -72 16 -2 24 6 35
32 11 28 17 34 29 26 13 -8 13 -16 -4 -61 -17 -51 -17 -53 0 -66 10 -7 21 -13
25 -13 7 0 82 151 77 155 -13 12 -215 125 -224 125 -2 0 -7 -8 -11 -17z"/>
<path d="M638 1577 c-15 -12 -14 -16 8 -52 13 -22 24 -46 24 -52 0 -24 -28
-13 -57 23 -28 34 -30 35 -46 19 -17 -16 -16 -19 4 -52 18 -29 19 -37 8 -44
-14 -9 -20 -3 -62 56 -19 27 -33 30 -57 15 -16 -10 -8 -30 43 -108 24 -36 32
-41 53 -36 32 8 204 92 204 100 0 16 -83 144 -93 144 -7 0 -19 -6 -29 -13z"/>
<path d="M4203 1397 c-12 -18 -25 -44 -28 -59 -10 -40 29 -113 78 -149 75 -54
131 -31 161 67 6 18 -6 32 -67 81 -40 33 -84 67 -98 76 -23 16 -25 15 -46 -16z
m67 -67 c0 -5 18 -22 40 -36 22 -15 40 -32 40 -39 0 -20 -24 -35 -46 -29 -25
7 -75 81 -67 100 6 16 33 19 33 4z"/>
<path d="M633 1345 c-33 -14 -58 -63 -49 -92 6 -17 71 -93 80 -93 7 0 170 101
181 112 6 6 1 6 -12 -1 -35 -18 -41 -13 -8 9 22 14 31 16 37 7 4 -7 8 -7 8 -2
-1 6 -7 19 -15 30 -15 18 -16 19 -45 2 -29 -18 -31 -18 -62 6 -41 31 -78 37
-115 22z m84 -68 c5 -9 -33 -46 -49 -47 -4 0 -13 10 -19 22 -9 17 -8 24 5 34
18 13 52 8 63 -9z"/>
<path d="M4075 1218 c-21 -29 -43 -59 -48 -66 -7 -8 -4 -19 8 -32 25 -27 28
-26 59 20 14 22 31 40 36 40 21 0 21 -30 0 -60 -21 -30 -21 -32 -5 -50 18 -20
19 -19 51 18 27 31 33 34 39 20 5 -12 -4 -32 -24 -60 l-31 -42 20 -21 21 -20
35 40 c54 62 67 92 52 113 -23 30 -154 152 -164 152 -6 0 -27 -24 -49 -52z
m100 -58 c3 -5 1 -10 -4 -10 -6 0 -11 5 -11 10 0 6 2 10 4 10 3 0 8 -4 11 -10z"/>
<path d="M843 1233 c-13 -2 -23 -9 -23 -14 0 -6 -4 -8 -8 -5 -5 3 -27 -8 -50
-25 -105 -77 -55 -198 65 -158 39 12 128 78 118 87 -3 3 0 11 6 18 18 22 1 63
-34 84 -17 11 -36 19 -42 19 -5 -1 -20 -4 -32 -6z m7 -27 c0 -3 -4 -8 -10 -11
-5 -3 -10 -1 -10 4 0 6 5 11 10 11 6 0 10 -2 10 -4z m47 -42 c6 -17 -69 -73
-106 -80 -40 -8 -42 16 -6 48 48 42 104 57 112 32z"/>
<path d="M962 1110 c-14 -22 -10 -32 22 -68 l21 -23 -60 -54 c-33 -30 -63 -54
-67 -55 -15 0 -8 -27 10 -43 17 -16 24 -12 115 69 53 47 97 88 97 93 0 9 -106
101 -117 101 -4 0 -14 -9 -21 -20z"/>
<path d="M3935 1070 c-17 -19 -16 -22 25 -102 65 -126 79 -148 96 -141 7 3 14
13 14 22 0 14 2 14 10 1 23 -36 7 8 -21 57 -17 30 -28 57 -25 60 3 3 29 -8 57
-25 27 -18 53 -32 57 -32 8 0 35 40 30 45 -50 39 -161 105 -169 99 -8 -4 -9
-3 -5 4 6 10 -22 32 -42 32 -5 0 -17 -9 -27 -20z"/>
<path d="M1089 987 c-15 -21 -14 -23 22 -52 21 -16 38 -35 39 -42 0 -20 -20
-26 -38 -10 -9 8 -27 20 -39 26 -19 10 -24 8 -34 -11 -10 -19 -8 -25 21 -48
27 -22 30 -28 18 -38 -12 -9 -23 -5 -57 20 -34 24 -47 29 -60 21 -9 -6 -17
-16 -18 -24 -2 -12 45 -54 114 -104 10 -8 33 11 98 80 47 50 84 94 82 100 -4
10 -118 103 -127 104 -3 0 -12 -10 -21 -22z"/>
<path d="M3793 933 c-51 -48 -60 -61 -52 -75 15 -26 42 -22 74 12 33 34 40 36
49 15 3 -9 -7 -29 -24 -49 -28 -32 -29 -34 -12 -49 16 -15 20 -14 47 8 22 17
33 20 43 12 10 -8 4 -19 -28 -52 -40 -41 -41 -42 -23 -63 l18 -22 63 58 63 57
-44 65 c-25 36 -60 82 -78 103 l-34 38 -62 -58z"/>
<path d="M3648 824 l-58 -45 15 -30 c9 -16 17 -29 19 -29 2 0 20 14 41 30 l38
30 46 -80 c25 -44 51 -80 57 -80 5 0 19 6 29 14 18 13 17 18 -35 102 -61 102
-83 133 -90 134 -3 0 -31 -21 -62 -46z"/>
<path d="M1209 779 c-52 -39 -96 -73 -97 -74 -2 -2 -1 -13 3 -24 4 -13 11 -18
22 -14 12 5 14 3 8 -8 -5 -8 17 7 50 33 33 26 61 46 62 44 2 -1 -9 -31 -23
-66 -24 -61 -25 -65 -8 -77 27 -20 33 -16 53 30 10 23 28 64 40 90 12 26 19
52 16 57 -3 6 -2 10 4 10 5 0 13 9 16 21 7 21 -16 48 -41 49 -7 0 -54 -32
-105 -71z"/>
<path d="M1401 752 c-14 -29 -13 -30 50 -65 24 -13 29 -21 21 -29 -8 -8 -21
-8 -50 0 -50 15 -52 15 -52 -2 0 -8 -5 -16 -11 -18 -6 -2 7 -13 30 -23 22 -11
41 -23 41 -27 0 -18 -25 -18 -71 -2 -49 18 -51 18 -65 0 -7 -10 -11 -22 -9
-26 2 -3 35 -23 73 -43 65 -34 71 -35 85 -19 22 25 129 193 125 197 -2 2 -37
21 -79 44 l-76 40 -12 -27z"/>
<path d="M3496 729 c-22 -17 -26 -28 -26 -74 0 -43 6 -62 33 -101 34 -52 69
-71 110 -60 96 24 38 254 -64 256 -15 0 -38 -9 -53 -21z m77 -62 c27 -42 42
-106 28 -120 -10 -9 -16 -7 -32 13 -10 14 -23 30 -27 35 -4 6 -9 29 -11 53 -3
49 16 58 42 19z m-82 -40 c-10 -9 -11 -8 -5 6 3 10 9 15 12 12 3 -3 0 -11 -7
-18z"/>
<path d="M3381 671 c-12 -8 -12 -14 -1 -40 12 -29 11 -33 -15 -53 -39 -30 -58
-79 -44 -115 27 -71 69 -80 142 -32 l47 31 -16 36 c-9 20 -25 64 -37 97 -16
48 -22 55 -28 40 -5 -14 -8 -16 -8 -4 -2 26 -24 50 -40 40z m46 -160 c16 -44
-18 -70 -47 -36 -10 12 -9 20 4 40 21 32 29 32 43 -4z"/>
<path d="M1577 632 c-58 -39 -98 -121 -83 -170 9 -27 43 -48 92 -56 l41 -7 56
109 56 110 -33 16 c-45 21 -94 20 -129 -2z m51 -102 c-25 -47 -38 -60 -53 -58
-49 7 10 118 62 118 l24 0 -33 -60z"/>
<path d="M3170 584 c-78 -30 -84 -35 -76 -68 l6 -26 51 20 c61 24 59 24 59 0
0 -13 -12 -26 -35 -37 -21 -10 -35 -24 -35 -35 0 -26 23 -32 58 -14 27 14 31
14 36 0 3 -9 6 -17 6 -18 0 -1 -23 -13 -50 -26 -34 -16 -49 -28 -45 -38 3 -7
5 -20 5 -27 0 -10 20 -6 77 15 43 15 79 32 81 38 2 8 -24 114 -55 225 -7 21
-4 21 -83 -9z"/>
<path d="M2644 553 c2 -10 7 -67 11 -128 10 -194 16 -235 32 -235 11 0 13 8 9
27 -3 16 -11 101 -17 191 -10 125 -16 162 -27 162 -8 0 -11 -7 -8 -17z"/>
<path d="M1850 533 c-15 -19 -20 -37 -17 -58 3 -22 -2 -34 -20 -48 -19 -15
-23 -27 -21 -56 3 -30 9 -39 38 -52 19 -10 52 -20 73 -23 30 -6 38 -4 43 11 4
10 24 63 45 117 22 54 38 100 37 101 -8 7 -119 35 -136 35 -11 0 -30 -12 -42
-27z m100 -50 c-1 -19 -19 -35 -34 -30 -26 10 -19 37 9 37 14 0 25 -3 25 -7z
m-34 -100 c-3 -22 -56 -31 -56 -10 0 19 10 27 36 27 15 0 21 -5 20 -17z"/>
<path d="M3041 542 c-21 -3 -23 -7 -18 -43 7 -55 -10 -60 -50 -14 l-34 39 -21
-21 -21 -22 27 -35 c21 -29 25 -40 16 -55 -26 -50 1 -121 47 -121 27 0 103 19
115 29 7 6 -17 191 -30 226 -5 14 -14 19 -31 17z m-17 -209 c-9 -7 -21 -10
-25 -7 -17 10 -9 43 14 59 21 15 22 15 25 -12 2 -17 -3 -32 -14 -40z"/>
<path d="M2036 494 c-8 -31 5 -43 44 -45 38 -1 55 -12 56 -36 1 -24 -10 -30
-21 -13 -3 6 -21 10 -40 10 -26 0 -35 -5 -40 -21 -8 -26 8 -39 48 -39 22 0 28
-4 25 -17 -3 -15 -12 -17 -59 -15 -52 3 -57 2 -62 -19 -4 -13 -4 -25 -2 -27
10 -11 159 -31 165 -23 3 5 18 59 34 121 33 128 35 124 -53 135 -31 3 -63 8
-72 11 -12 3 -19 -4 -23 -22z"/>
<path d="M2235 368 c-19 -61 -35 -117 -35 -123 0 -13 38 -27 50 -20 4 3 11 19
15 37 l8 33 6 -35 c5 -28 11 -36 32 -38 22 -3 27 3 40 40 l14 43 3 -42 c3 -40
5 -43 33 -43 l29 0 0 125 0 125 -35 0 c-32 0 -36 -3 -42 -31 -3 -18 -9 -26
-13 -19 -4 6 -5 22 -2 36 4 22 1 24 -31 24 l-36 0 -36 -112z m72 96 c-3 -3
-12 -4 -19 -1 -8 3 -5 6 6 6 11 1 17 -2 13 -5z m-8 -45 c-22 -13 -31 -11 -17
5 7 8 17 12 22 9 4 -3 2 -9 -5 -14z"/>
</g>
</svg>
